<?xml version="1.0" encoding="UTF-8" standalone="no"?>
<!-- Generator: Gravit.io --><svg xmlns="http://www.w3.org/2000/svg" xmlns:xlink="http://www.w3.org/1999/xlink"
    style="isolation:isolate" viewBox="0 0 763 175" width="763px" height="175px">
    <defs>
        <clipPath id="_clipPath_xoZG84330HmJ2WUwBzGA9KuvHYGSzVdz">
            <rect width="763" height="175" />
        </clipPath>
    </defs>
    <g clip-path="url(#_clipPath_xoZG84330HmJ2WUwBzGA9KuvHYGSzVdz)">
        <rect width="763" height="175" style="fill:rgb(255,0,0)" fill-opacity="0" />
        <g style="isolation:isolate">
            <path
                d=" M 381.5 0 L 46.547 0 Q 45.955 10.443 37.89 21.084 C 29.399 32.287 16.787 37.82 7.588 52.711 Q -0.316 65.506 0.013 87.5 L 0.013 87.5 Q -0.316 109.494 7.588 122.289 C 16.787 137.18 29.399 142.713 37.89 153.916 Q 45.955 164.557 46.547 175 L 381.5 175 L 381.5 175 L 716.453 175 Q 717.045 164.557 725.11 153.916 C 733.601 142.713 746.213 137.18 755.411 122.289 Q 763.316 109.494 762.987 87.5 L 762.987 87.5 Q 763.316 65.506 755.411 52.711 C 746.213 37.82 733.602 32.287 725.11 21.084 Q 717.045 10.443 716.453 0 L 381.5 0 L 381.5 0 Z  M 381.5 87.5 L 381.5 87.5 L 381.5 87.5 Z "
                fill-rule="evenodd" fill="rgb(254,255,241)" />
            <path
                d=" M 382.294 5 L 711.282 5 Q 711.863 14.906 719.785 25 C 728.125 35.626 740.512 40.875 749.547 55 Q 757.31 67.138 756.987 88 L 756.987 88 Q 757.31 108.862 749.547 121 C 740.512 135.125 728.125 140.374 719.785 151 Q 711.863 161.094 711.282 171 L 382.294 171 L 382.294 171 L 53.307 171 Q 52.725 161.094 44.804 151 C 36.463 140.374 24.077 135.125 15.042 121 Q 7.278 108.862 7.601 88 L 7.601 88 Q 7.278 67.138 15.042 55 C 24.077 40.875 36.463 35.626 44.804 25 Q 52.725 14.906 53.307 5 L 382.294 5 L 382.294 5 Z  M 382.294 88 L 382.294 88 L 382.294 88 Z  M 382.294 6.897 L 709.482 6.897 C 709.609 7.931 709.786 8.965 710.022 9.989 C 710.425 11.706 710.955 13.395 711.613 15.036 C 712.36 16.876 713.243 18.669 714.265 20.386 C 715.453 22.387 716.779 24.313 718.223 26.153 C 720.06 28.458 722.083 30.611 724.283 32.613 C 726.424 34.548 728.625 36.436 730.874 38.257 C 732.386 39.5 733.879 40.752 735.353 42.013 C 736.865 43.322 738.329 44.669 739.753 46.064 C 742.827 49.071 745.557 52.41 747.875 56.005 C 749.064 57.854 750.076 59.799 750.891 61.829 C 751.883 64.248 752.669 66.743 753.268 69.275 C 753.906 71.988 754.348 74.739 754.613 77.509 C 754.937 81 755.075 84.5 755.026 88 C 755.085 91.728 754.918 95.456 754.545 99.155 C 754.24 102.058 753.729 104.941 753.012 107.768 C 752.423 110.092 751.657 112.369 750.724 114.579 C 749.938 116.457 748.985 118.269 747.875 119.995 C 745.557 123.59 742.827 126.929 739.753 129.936 C 738.329 131.331 736.865 132.678 735.353 133.987 C 733.879 135.248 732.386 136.5 730.874 137.743 C 728.625 139.564 726.424 141.452 724.283 143.387 C 722.083 145.389 720.06 147.542 718.223 149.847 C 716.779 151.687 715.453 153.613 714.265 155.614 C 713.243 157.331 712.36 159.124 711.613 160.964 C 710.955 162.605 710.425 164.294 710.022 166.011 C 709.786 167.035 709.609 168.069 709.482 169.103 L 382.294 169.103 L 55.107 169.103 C 54.979 168.069 54.802 167.035 54.567 166.011 C 54.164 164.294 53.634 162.605 52.976 160.964 C 52.229 159.124 51.345 157.331 50.324 155.614 C 49.135 153.613 47.809 151.687 46.365 149.847 C 44.529 147.542 42.505 145.389 40.305 143.387 C 38.164 141.452 35.964 139.564 33.715 137.743 C 32.202 136.5 30.709 135.248 29.236 133.987 C 27.723 132.678 26.26 131.331 24.836 129.936 C 21.761 126.929 19.031 123.59 16.713 119.995 C 15.525 118.146 14.513 116.201 13.698 114.171 C 12.706 111.752 11.92 109.257 11.321 106.725 C 10.682 104.012 10.24 101.261 9.975 98.491 C 9.651 95 9.514 91.5 9.563 88 C 9.504 84.272 9.671 80.544 10.044 76.845 C 10.348 73.942 10.859 71.059 11.576 68.232 C 12.165 65.908 12.932 63.631 13.865 61.421 C 14.65 59.543 15.603 57.731 16.713 56.005 C 19.031 52.41 21.761 49.071 24.836 46.064 C 26.26 44.669 27.723 43.322 29.236 42.013 C 30.709 40.752 32.202 39.5 33.715 38.257 C 35.964 36.436 38.164 34.548 40.305 32.613 C 42.505 30.611 44.529 28.458 46.365 26.153 C 47.809 24.313 49.135 22.387 50.324 20.386 C 51.345 18.669 52.229 16.876 52.976 15.036 C 53.634 13.395 54.164 11.706 54.567 9.989 C 54.802 8.965 54.979 7.931 55.107 6.897 L 382.294 6.897 Z "
                fill-rule="evenodd" fill="rgb(232,200,143)" />
            <path
                d=" M 28.557 73.419 L 31.225 81.388 C 31.611 82.541 32.864 83.78 34.021 84.154 L 42.017 86.737 C 43.174 87.111 43.177 87.728 42.024 88.114 L 34.056 90.781 C 32.903 91.167 31.663 92.42 31.289 93.577 L 28.706 101.574 C 28.332 102.731 27.716 102.734 27.33 101.581 L 24.662 93.612 C 24.276 92.459 23.023 91.22 21.867 90.846 L 13.87 88.263 C 12.713 87.889 12.71 87.272 13.863 86.886 L 21.832 84.219 C 22.984 83.833 24.224 82.58 24.598 81.423 L 27.181 73.426 C 27.555 72.269 28.171 72.266 28.557 73.419 Z "
                fill="rgb(232,200,143)" />
            <path
                d=" M 737.338 73.796 L 740.005 81.765 C 740.391 82.918 741.644 84.158 742.801 84.531 L 750.797 87.115 C 751.954 87.488 751.958 88.105 750.805 88.491 L 742.836 91.159 C 741.683 91.545 740.443 92.797 740.07 93.954 L 737.486 101.951 C 737.113 103.108 736.496 103.111 736.11 101.958 L 733.442 93.989 C 733.056 92.836 731.804 91.597 730.647 91.223 L 722.65 88.64 C 721.493 88.266 721.49 87.649 722.643 87.263 L 730.612 84.596 C 731.765 84.21 733.004 82.957 733.378 81.8 L 735.961 73.803 C 736.335 72.647 736.952 72.643 737.338 73.796 Z "
                fill="rgb(232,200,143)" />
            <path
                d=" M 486.634 28.35 L 486.634 28.35 L 486.634 28.35 Q 486.957 28.253 487.118 28.607 L 487.118 28.607 L 488.342 35.923 L 488.342 35.923 Q 488.439 36.632 487.762 36.632 L 487.762 36.632 L 487.698 36.632 L 486.409 36.6 L 486.409 36.6 Q 485.958 36.567 485.861 36.148 L 485.861 36.148 L 485.861 36.148 Q 483.412 31.959 479.287 31.669 L 479.287 31.669 L 479.287 31.669 Q 475.033 31.669 473.26 36.084 L 473.26 36.084 L 473.26 36.084 Q 472.293 38.791 472.293 41.724 L 472.293 41.724 L 472.293 41.724 Q 472.293 50.328 477.772 51.714 L 477.772 51.714 L 477.772 51.714 Q 478.32 51.843 478.868 51.843 L 478.868 51.843 L 480.125 51.843 L 480.125 51.843 Q 483.412 51.843 487.118 48.523 L 487.118 48.523 L 487.118 48.523 Q 487.504 48.233 487.794 48.523 L 487.794 48.523 L 488.89 49.394 L 488.89 49.394 Q 489.18 49.587 489.116 49.974 L 489.116 49.974 L 489.116 49.974 Q 487.698 52.455 484.733 54.002 L 484.733 54.002 L 484.733 54.002 Q 482.058 55.162 478.997 55.13 L 478.997 55.13 L 478.997 55.13 Q 468.362 55.033 466.396 44.914 L 466.396 44.914 L 466.396 44.914 Q 466.138 43.528 466.106 41.015 L 466.106 41.015 L 466.106 41.015 Q 466.106 32.926 473.518 29.51 L 473.518 29.51 L 473.518 29.51 Q 475.774 28.543 478.997 28.543 L 478.997 28.543 L 478.997 28.543 Q 481.961 28.543 485.603 30.025 L 485.603 30.025 L 485.603 30.025 Q 486.473 29.639 486.634 28.35 Z  M 491.339 45.688 L 491.339 45.688 L 491.339 45.688 Q 491.339 43.561 491.984 41.804 L 491.984 41.804 L 491.984 41.804 Q 492.628 40.048 493.853 38.807 L 493.853 38.807 L 493.853 38.807 Q 495.078 37.566 496.866 36.857 L 496.866 36.857 L 496.866 36.857 Q 498.655 36.148 500.943 36.148 L 500.943 36.148 L 500.943 36.148 Q 503.231 36.148 505.003 36.857 L 505.003 36.857 L 505.003 36.857 Q 506.776 37.566 508.017 38.807 L 508.017 38.807 L 508.017 38.807 Q 509.257 40.048 509.902 41.804 L 509.902 41.804 L 509.902 41.804 Q 510.546 43.561 510.546 45.688 L 510.546 45.688 L 510.546 45.688 Q 510.546 47.814 509.902 49.555 L 509.902 49.555 L 509.902 49.555 Q 509.257 51.295 508.017 52.536 L 508.017 52.536 L 508.017 52.536 Q 506.776 53.776 504.987 54.485 L 504.987 54.485 L 504.987 54.485 Q 503.199 55.194 500.943 55.194 L 500.943 55.194 L 500.943 55.194 Q 498.655 55.194 496.866 54.485 L 496.866 54.485 L 496.866 54.485 Q 495.078 53.776 493.853 52.536 L 493.853 52.536 L 493.853 52.536 Q 492.628 51.295 491.984 49.555 L 491.984 49.555 L 491.984 49.555 Q 491.339 47.814 491.339 45.688 Z  M 496.947 45.688 L 496.947 45.688 L 496.947 45.688 Q 496.947 48.813 497.994 50.57 L 497.994 50.57 L 497.994 50.57 Q 499.042 52.326 500.943 52.326 L 500.943 52.326 L 500.943 52.326 Q 502.812 52.326 503.875 50.57 L 503.875 50.57 L 503.875 50.57 Q 504.939 48.813 504.939 45.688 L 504.939 45.688 L 504.939 45.688 Q 504.939 42.562 503.875 40.789 L 503.875 40.789 L 503.875 40.789 Q 502.812 39.017 500.943 39.017 L 500.943 39.017 L 500.943 39.017 Q 499.074 39.017 498.01 40.789 L 498.01 40.789 L 498.01 40.789 Q 496.947 42.562 496.947 45.688 Z  M 525.145 36.438 L 525.145 36.438 L 525.371 36.438 L 525.371 36.438 Q 528.4 36.471 529.753 38.759 L 529.753 38.759 L 529.753 38.759 Q 531.655 36.438 534.974 36.503 L 534.974 36.503 L 535.264 36.503 L 535.264 36.503 Q 539.647 36.503 541.129 39.951 L 541.129 39.951 L 541.129 39.951 Q 541.387 40.95 541.355 41.627 L 541.355 41.627 L 541.323 52.262 L 541.323 52.262 Q 541.162 54.646 537.81 54.969 L 537.81 54.969 L 537.81 54.969 Q 537.004 55.001 536.295 54.969 L 536.295 54.969 L 536.295 54.969 Q 536.038 54.904 536.07 54.582 L 536.07 54.582 L 536.102 42.497 L 536.102 42.497 Q 536.134 39.532 533.588 39.403 L 533.588 39.403 L 533.588 39.403 Q 531.88 39.532 530.881 41.337 L 530.881 41.337 L 530.849 53.293 L 530.849 53.293 Q 530.946 54.84 529.689 54.937 L 529.689 54.937 L 526.08 54.937 L 526.08 54.937 Q 525.822 54.904 525.854 54.518 L 525.854 54.518 L 525.886 42.594 L 525.886 42.594 Q 525.918 39.5 523.469 39.436 L 523.469 39.436 L 523.469 39.436 Q 521.632 39.5 520.633 40.886 L 520.633 40.886 L 520.601 53.1 L 520.601 53.1 Q 520.73 54.904 519.248 54.904 L 519.248 54.904 L 519.248 54.904 Q 515.832 54.904 515.574 54.904 L 515.574 54.904 L 515.574 54.904 Q 515.251 54.84 515.187 54.453 L 515.187 54.453 L 515.251 41.498 L 515.251 41.498 Q 515.251 39.758 513.06 38.533 L 513.06 38.533 L 513.06 38.533 Q 513.028 37.985 513.801 37.856 L 513.801 37.856 L 513.801 37.856 Q 517.54 37.019 519.892 36.6 L 519.892 36.6 L 519.892 36.6 Q 520.311 36.6 520.279 37.083 L 520.279 37.083 L 520.279 38.437 L 520.279 38.437 Q 521.987 36.438 525.145 36.438 Z  M 556.759 36.116 L 556.759 36.116 L 557.404 36.116 L 557.404 36.116 Q 562.721 36.116 564.461 42.4 L 564.461 42.4 L 564.461 42.4 Q 564.751 44.012 564.751 45.107 L 564.751 45.107 L 564.751 45.752 L 564.751 45.752 Q 564.751 52.133 560.208 54.453 L 560.208 54.453 L 560.208 54.453 Q 558.371 54.969 557.404 54.969 L 557.404 54.969 L 556.663 54.969 L 556.663 54.969 Q 554.149 54.969 552.667 53.422 L 552.667 53.422 L 552.667 58.191 L 552.667 58.191 Q 552.667 61.704 549.089 62.929 L 549.089 62.929 L 549.089 62.929 Q 548.574 63.154 547.639 63.154 L 547.639 63.154 L 547.542 63.154 L 547.542 63.154 Q 547.285 63.154 547.285 62.929 L 547.285 62.929 L 547.285 41.788 L 547.285 41.788 Q 547.285 39.436 545.125 38.275 L 545.125 38.275 L 545.125 38.05 L 545.125 38.05 Q 545.287 37.695 545.706 37.599 L 545.706 37.599 L 545.706 37.599 Q 551.249 36.406 552.151 36.245 L 552.151 36.245 L 552.151 36.245 Q 552.441 36.374 552.409 36.6 L 552.409 36.6 L 552.409 36.6 Q 552.409 37.728 552.409 37.953 L 552.409 37.953 L 552.409 37.953 Q 554.342 36.116 556.759 36.116 Z  M 552.667 40.467 L 552.667 40.467 L 552.667 50.618 L 552.667 50.618 Q 553.923 52.133 555.728 52.133 L 555.728 52.133 L 555.728 52.133 Q 558.564 52.133 559.08 46.977 L 559.08 46.977 L 559.08 44.817 L 559.08 44.817 Q 559.08 40.37 556.759 39.21 L 556.759 39.21 L 555.986 39.081 L 555.245 39.081 L 555.245 39.081 Q 553.794 39.081 552.667 40.467 Z  M 574.742 28.35 L 574.742 28.35 L 574.742 28.35 Q 575.096 28.35 575.161 28.736 L 575.161 28.736 L 575.161 36.6 L 575.161 49.813 L 575.161 49.813 Q 575.225 51.585 575.95 52.084 L 575.95 52.084 L 575.95 52.084 Q 576.675 52.584 577.739 52.455 L 577.739 52.455 L 577.739 52.455 Q 578.673 52.358 579.189 52.326 L 579.189 52.326 L 579.189 52.326 Q 579.608 52.358 579.624 52.906 L 579.624 52.906 L 579.624 52.906 Q 579.64 53.454 579.189 53.776 L 579.189 53.776 L 579.189 53.776 Q 577.159 55.71 575.161 55.742 L 575.161 55.742 L 574.516 55.742 L 574.516 55.742 Q 569.779 55.742 569.779 49.941 L 569.779 49.941 L 569.779 33.313 L 569.779 33.313 Q 569.779 31.604 567.62 30.219 L 567.62 30.219 L 567.62 30.122 L 567.62 30.122 Q 567.587 29.671 568.135 29.542 L 568.135 29.542 L 568.135 29.542 Q 573.872 28.414 574.742 28.35 Z  M 589.759 38.888 L 589.759 38.888 L 589.759 38.888 Q 588.599 38.888 587.713 40.08 L 587.713 40.08 L 587.713 40.08 Q 586.827 41.272 586.827 44.141 L 586.827 44.141 L 593.401 44.141 L 593.401 44.141 Q 593.498 41.627 592.434 40.241 L 592.434 40.241 L 592.434 40.241 Q 591.371 38.855 589.759 38.888 Z  M 589.792 36.406 L 589.792 36.406 Q 596.205 36.406 598.364 42.368 L 598.364 42.368 L 598.364 42.368 Q 598.976 44.302 598.75 46.493 L 598.75 46.493 L 598.75 46.493 Q 598.783 47.234 598.17 47.234 L 598.17 47.234 L 586.923 47.299 L 586.923 47.299 Q 586.698 47.234 586.762 47.557 L 586.762 47.557 L 586.762 47.557 Q 586.794 51.134 590.355 51.859 L 590.355 51.859 L 590.355 51.859 Q 593.917 52.584 597.042 50.328 L 597.042 50.328 L 597.042 50.328 Q 597.139 50.231 597.268 50.296 L 597.268 50.296 L 597.268 50.296 Q 597.655 50.586 598.17 51.198 L 598.17 51.198 L 598.17 51.198 Q 598.364 51.392 598.235 51.553 L 598.235 51.553 L 598.235 51.553 Q 594.819 55.42 589.824 55.13 L 589.824 55.13 L 589.824 55.13 Q 583.668 54.904 581.445 49.039 L 581.445 49.039 L 581.445 49.039 Q 581.155 47.686 581.155 46.59 L 581.155 46.59 L 581.155 45.301 L 581.155 45.301 Q 582.218 36.503 589.792 36.406 L 589.792 36.406 Z  M 607.967 30.509 L 607.967 30.509 Q 608.418 30.541 608.451 30.96 L 608.451 30.96 L 608.451 36.632 L 613.736 36.632 L 613.736 36.632 Q 613.994 36.664 614.026 36.89 L 614.026 36.89 L 614.026 36.89 Q 613.833 37.953 613.107 38.582 L 613.107 38.582 L 613.107 38.582 Q 612.382 39.21 611.287 39.242 L 611.287 39.242 L 608.451 39.274 L 608.451 49.49 L 608.451 49.49 Q 608.451 52.101 610.674 52.101 L 610.674 52.101 L 610.674 52.101 Q 612.189 52.036 613.252 51.488 L 613.252 51.488 L 613.252 51.488 Q 613.542 51.327 613.704 51.553 L 613.704 51.553 L 613.704 51.553 Q 613.994 52.036 614.123 52.294 L 614.123 52.294 L 614.123 52.294 Q 613.897 53.357 612.398 54.147 L 612.398 54.147 L 612.398 54.147 Q 610.9 54.937 608.58 54.937 L 608.58 54.937 L 608.58 54.937 Q 604.132 54.937 603.359 52.294 L 603.359 52.294 L 603.359 52.294 Q 603.101 51.488 603.133 50.006 L 603.133 50.006 L 603.133 39.242 L 601.006 39.242 L 601.006 39.242 Q 600.523 39.242 600.523 38.727 L 600.523 38.727 L 600.523 36.986 L 600.523 36.986 Q 600.523 36.696 600.877 36.632 L 600.877 36.632 L 600.877 36.632 Q 603.133 36.632 603.133 36.632 L 603.133 36.632 L 603.166 34.602 L 603.166 34.602 Q 603.262 33.345 602.199 33.345 L 602.199 33.345 L 602.199 33.345 Q 602.167 32.507 602.843 32.281 L 602.843 32.281 L 607.967 30.509 Z  M 623.984 38.888 L 623.984 38.888 L 623.984 38.888 Q 622.824 38.888 621.938 40.08 L 621.938 40.08 L 621.938 40.08 Q 621.051 41.272 621.051 44.141 L 621.051 44.141 L 627.625 44.141 L 627.625 44.141 Q 627.722 41.627 626.659 40.241 L 626.659 40.241 L 626.659 40.241 Q 625.595 38.855 623.984 38.888 Z  M 624.016 36.406 L 624.016 36.406 Q 630.429 36.406 632.588 42.368 L 632.588 42.368 L 632.588 42.368 Q 633.201 44.302 632.975 46.493 L 632.975 46.493 L 632.975 46.493 Q 633.007 47.234 632.395 47.234 L 632.395 47.234 L 621.148 47.299 L 621.148 47.299 Q 620.922 47.234 620.987 47.557 L 620.987 47.557 L 620.987 47.557 Q 621.019 51.134 624.58 51.859 L 624.58 51.859 L 624.58 51.859 Q 628.141 52.584 631.267 50.328 L 631.267 50.328 L 631.267 50.328 Q 631.364 50.231 631.493 50.296 L 631.493 50.296 L 631.493 50.296 Q 631.879 50.586 632.395 51.198 L 632.395 51.198 L 632.395 51.198 Q 632.588 51.392 632.459 51.553 L 632.459 51.553 L 632.459 51.553 Q 629.043 55.42 624.048 55.13 L 624.048 55.13 L 624.048 55.13 Q 617.893 54.904 615.669 49.039 L 615.669 49.039 L 615.669 49.039 Q 615.379 47.686 615.379 46.59 L 615.379 46.59 L 615.379 45.301 L 615.379 45.301 Q 616.443 36.503 624.016 36.406 L 624.016 36.406 Z  M 647.799 28.865 L 654.019 27.641 L 654.309 27.641 L 654.309 27.641 Q 654.631 27.705 654.728 28.027 L 654.728 28.027 L 654.728 53.873 L 654.728 53.873 Q 654.728 54.904 653.665 54.904 L 653.665 54.904 L 644.287 54.904 L 644.287 54.904 Q 639.678 54.904 637.648 49.394 L 637.648 49.394 L 637.648 49.394 Q 637.293 47.621 637.293 46.461 L 637.293 46.461 L 637.293 44.785 L 637.293 44.785 Q 637.293 38.759 641.999 36.6 L 641.999 36.6 L 641.999 36.6 Q 643.449 36.116 644.931 36.116 L 644.931 36.116 L 644.931 36.116 Q 647.638 36.116 649.314 37.631 L 649.314 37.631 L 649.314 33.409 L 649.314 33.409 Q 649.314 31.057 647.123 29.671 L 647.123 29.671 L 647.123 29.574 L 647.123 29.574 Q 647.123 28.962 647.799 28.865 L 647.799 28.865 Z  M 642.772 45.849 L 642.772 45.849 L 642.772 45.849 Q 642.772 52.101 646.51 52.068 L 646.51 52.068 L 649.024 52.068 L 649.024 52.068 Q 649.282 52.068 649.314 51.843 L 649.314 51.843 L 649.314 40.435 L 649.314 40.435 Q 648.315 39.049 646.381 39.049 L 646.381 39.049 L 645.962 39.049 L 645.962 39.049 Q 642.772 39.049 642.772 45.849 Z  M 479.512 42.948 L 479.512 42.948 L 479.512 42.948 Q 479.448 42.948 479.448 42.884 L 479.448 42.884 L 479.448 42.884 Q 479.448 42.819 479.512 42.819 L 479.512 42.819 L 479.512 42.819 Q 479.577 42.819 479.577 42.884 L 479.577 42.884 L 479.577 42.884 Q 479.577 42.948 479.512 42.948 Z  M 234.848 28.704 L 234.848 28.704 L 238.264 28.704 L 238.264 28.704 Q 239.199 28.64 239.457 29.478 L 239.457 29.478 L 239.457 29.478 Q 247.964 54.163 247.964 54.518 L 247.964 54.518 L 247.964 54.518 Q 247.964 54.775 247.707 54.775 L 247.707 54.775 L 246.289 54.775 L 246.289 54.775 Q 242.292 54.775 240.423 50.006 L 240.423 50.006 L 240.423 50.006 Q 239.714 48.169 239.65 47.943 L 239.65 47.943 L 231.078 47.943 L 231.078 47.943 Q 231.013 48.104 229.208 53.712 L 229.208 53.712 L 229.208 53.712 Q 228.983 54.131 228.306 54.453 L 228.306 54.453 L 228.306 54.453 Q 227.146 54.904 225.599 54.775 L 225.599 54.775 L 225.599 54.775 Q 225.341 54.775 225.341 54.518 L 225.341 54.518 L 225.341 54.518 Q 226.405 50.715 233.656 29.478 L 233.656 29.478 L 233.656 29.478 Q 233.978 28.672 234.848 28.704 Z  M 235.622 34.473 L 235.493 34.473 L 232.109 44.785 L 238.748 44.785 L 238.748 44.656 L 235.622 34.473 Z  M 259.63 36.438 L 259.63 36.438 L 259.63 36.438 Q 266.462 36.438 267.59 41.917 L 267.59 41.917 L 267.59 41.917 Q 267.719 42.852 267.751 43.432 L 267.751 43.432 L 267.751 43.432 Q 267.784 44.012 267.365 44.076 L 267.365 44.076 L 264.013 44.076 L 264.013 44.076 Q 263.755 43.947 263.691 43.625 L 263.691 43.625 L 263.691 43.625 Q 263.208 39.403 259.63 39.339 L 259.63 39.339 L 259.63 39.339 Q 255.667 39.758 255.602 46.042 L 255.602 46.042 L 255.602 46.042 Q 255.602 50.747 259.453 51.794 L 259.453 51.794 L 259.453 51.794 Q 263.304 52.842 266.076 50.103 L 266.076 50.103 L 266.076 50.103 Q 266.301 50.038 266.527 50.135 L 266.527 50.135 L 266.527 50.135 Q 266.978 50.457 267.397 51.037 L 267.397 51.037 L 267.397 51.037 Q 267.623 51.263 267.494 51.585 L 267.494 51.585 L 267.494 51.585 Q 264.658 55.259 259.501 55.227 L 259.501 55.227 L 259.501 55.227 Q 254.12 55.13 251.993 52.149 L 251.993 52.149 L 251.993 52.149 Q 249.866 49.168 250.091 45.462 L 250.091 45.462 L 250.091 45.462 Q 250.929 36.567 259.63 36.438 Z  M 276.872 27.77 L 276.872 27.77 L 276.872 27.77 Q 277.355 27.866 277.355 28.317 L 277.355 28.317 L 277.355 37.824 L 277.355 37.824 Q 279.095 36.31 281.287 36.31 L 281.287 36.31 L 282.286 36.31 L 282.286 36.31 Q 286.894 36.406 288.28 40.338 L 288.28 40.338 L 288.28 40.338 Q 288.505 41.595 288.505 42.594 L 288.505 42.594 L 288.505 51.907 L 288.505 51.907 Q 288.634 54.26 286.088 54.775 L 286.088 54.775 L 286.088 54.775 Q 283.994 54.775 283.542 54.775 L 283.542 54.775 L 283.446 54.775 L 283.446 54.775 Q 283.188 54.775 283.188 54.518 L 283.188 54.518 L 283.188 42.239 L 283.188 42.239 Q 282.995 39.21 280.417 39.21 L 280.417 39.21 L 280.417 39.21 Q 277.903 39.178 277.355 41.079 L 277.355 41.079 L 277.355 53.68 L 277.355 53.68 Q 277.355 54.195 277.226 54.501 L 277.226 54.501 L 277.226 54.501 Q 277.097 54.808 276.582 54.775 L 276.582 54.775 L 272.392 54.808 L 272.392 54.808 Q 272.005 54.711 272.038 54.292 L 272.038 54.292 L 272.038 32.958 L 272.038 32.958 Q 272.07 31.121 269.846 29.8 L 269.846 29.8 L 269.846 29.8 Q 269.814 29.445 270.297 29.252 L 270.297 29.252 L 270.297 29.252 Q 274.938 28.124 276.872 27.77 Z  M 293.823 30.67 L 293.823 30.67 L 293.823 30.67 Q 293.823 31.798 294.532 32.636 L 294.532 32.636 L 294.532 32.636 Q 295.466 33.603 296.788 33.603 L 296.788 33.603 L 296.788 33.603 Q 298.077 33.603 298.979 32.636 L 298.979 32.636 L 298.979 32.636 Q 299.785 31.766 299.785 30.67 L 299.785 30.67 L 299.785 30.67 Q 299.752 29.51 298.979 28.64 L 298.979 28.64 L 298.979 28.64 Q 298.077 27.641 296.788 27.608 L 296.788 27.608 L 296.788 27.608 Q 295.595 27.641 294.757 28.446 L 294.757 28.446 L 294.757 28.446 Q 293.823 29.349 293.823 30.67 Z  M 299.559 36.213 L 299.559 36.213 L 299.559 36.213 Q 299.817 36.31 299.817 36.503 L 299.817 36.503 L 299.817 51.714 L 299.817 51.714 Q 299.914 54.808 295.305 54.808 L 295.305 54.808 L 295.305 54.808 Q 294.177 54.775 294.177 54.421 L 294.177 54.421 L 294.177 42.529 L 294.177 42.529 Q 294.177 39.468 291.825 38.34 L 291.825 38.34 L 291.825 38.34 Q 291.76 37.728 292.501 37.631 L 292.501 37.631 L 292.501 37.631 Q 298.56 36.31 299.559 36.213 Z  M 313.126 38.888 L 313.126 38.888 L 313.126 38.888 Q 311.966 38.888 311.08 40.08 L 311.08 40.08 L 311.08 40.08 Q 310.194 41.272 310.194 44.141 L 310.194 44.141 L 316.768 44.141 L 316.768 44.141 Q 316.865 41.627 315.801 40.241 L 315.801 40.241 L 315.801 40.241 Q 314.738 38.855 313.126 38.888 Z  M 313.159 36.406 L 313.159 36.406 Q 319.572 36.406 321.731 42.368 L 321.731 42.368 L 321.731 42.368 Q 322.343 44.302 322.118 46.493 L 322.118 46.493 L 322.118 46.493 Q 322.15 47.234 321.538 47.234 L 321.538 47.234 L 310.291 47.299 L 310.291 47.299 Q 310.065 47.234 310.129 47.557 L 310.129 47.557 L 310.129 47.557 Q 310.162 51.134 313.723 51.859 L 313.723 51.859 L 313.723 51.859 Q 317.284 52.584 320.41 50.328 L 320.41 50.328 L 320.41 50.328 Q 320.506 50.231 320.635 50.296 L 320.635 50.296 L 320.635 50.296 Q 321.022 50.586 321.538 51.198 L 321.538 51.198 L 321.538 51.198 Q 321.731 51.392 321.602 51.553 L 321.602 51.553 L 321.602 51.553 Q 318.186 55.42 313.191 55.13 L 313.191 55.13 L 313.191 55.13 Q 307.036 54.904 304.812 49.039 L 304.812 49.039 L 304.812 49.039 Q 304.522 47.686 304.522 46.59 L 304.522 46.59 L 304.522 45.301 L 304.522 45.301 Q 305.585 36.503 313.159 36.406 L 313.159 36.406 Z  M 323.761 36.761 L 323.761 36.761 L 331.173 36.761 L 331.173 36.761 Q 331.882 36.761 332.14 37.534 L 332.14 37.534 L 332.14 37.534 Q 330.013 37.502 330.722 39.79 L 330.722 39.79 L 334.074 48.878 L 334.074 48.91 L 337.2 39.371 L 337.2 39.371 Q 337.393 38.146 335.75 37.373 L 335.75 37.373 L 335.75 37.244 L 335.75 37.244 Q 335.943 36.761 336.587 36.761 L 336.587 36.761 L 342.13 36.761 L 342.13 36.761 Q 342.968 36.761 342.968 37.663 L 342.968 37.663 L 342.968 37.663 Q 341.099 37.502 340.326 39.5 L 340.326 39.5 L 335.041 54.614 L 335.041 54.614 Q 334.912 54.872 334.622 54.84 L 334.622 54.84 L 331.818 54.84 L 331.818 54.84 Q 331.592 54.84 331.431 54.679 L 331.431 54.679 L 325.308 39.661 L 325.308 39.661 Q 324.212 37.566 322.762 37.534 L 322.762 37.534 L 322.762 37.373 L 322.762 37.373 Q 323.02 36.632 323.761 36.761 Z  M 352.153 38.888 L 352.153 38.888 L 352.153 38.888 Q 350.993 38.888 350.106 40.08 L 350.106 40.08 L 350.106 40.08 Q 349.22 41.272 349.22 44.141 L 349.22 44.141 L 355.794 44.141 L 355.794 44.141 Q 355.891 41.627 354.828 40.241 L 354.828 40.241 L 354.828 40.241 Q 353.764 38.855 352.153 38.888 Z  M 352.185 36.406 L 352.185 36.406 Q 358.598 36.406 360.757 42.368 L 360.757 42.368 L 360.757 42.368 Q 361.37 44.302 361.144 46.493 L 361.144 46.493 L 361.144 46.493 Q 361.176 47.234 360.564 47.234 L 360.564 47.234 L 349.317 47.299 L 349.317 47.299 Q 349.091 47.234 349.156 47.557 L 349.156 47.557 L 349.156 47.557 Q 349.188 51.134 352.749 51.859 L 352.749 51.859 L 352.749 51.859 Q 356.31 52.584 359.436 50.328 L 359.436 50.328 L 359.436 50.328 Q 359.533 50.231 359.662 50.296 L 359.662 50.296 L 359.662 50.296 Q 360.048 50.586 360.564 51.198 L 360.564 51.198 L 360.564 51.198 Q 360.757 51.392 360.628 51.553 L 360.628 51.553 L 360.628 51.553 Q 357.212 55.42 352.217 55.13 L 352.217 55.13 L 352.217 55.13 Q 346.062 54.904 343.838 49.039 L 343.838 49.039 L 343.838 49.039 Q 343.548 47.686 343.548 46.59 L 343.548 46.59 L 343.548 45.301 L 343.548 45.301 Q 344.612 36.503 352.185 36.406 L 352.185 36.406 Z  M 375.968 36.438 L 375.968 36.438 L 376.194 36.438 L 376.194 36.438 Q 379.223 36.471 380.577 38.759 L 380.577 38.759 L 380.577 38.759 Q 382.478 36.438 385.797 36.503 L 385.797 36.503 L 386.087 36.503 L 386.087 36.503 Q 390.47 36.503 391.953 39.951 L 391.953 39.951 L 391.953 39.951 Q 392.21 40.95 392.178 41.627 L 392.178 41.627 L 392.146 52.262 L 392.146 52.262 Q 391.985 54.646 388.633 54.969 L 388.633 54.969 L 388.633 54.969 Q 387.828 55.001 387.119 54.969 L 387.119 54.969 L 387.119 54.969 Q 386.861 54.904 386.893 54.582 L 386.893 54.582 L 386.925 42.497 L 386.925 42.497 Q 386.958 39.532 384.412 39.403 L 384.412 39.403 L 384.412 39.403 Q 382.704 39.532 381.705 41.337 L 381.705 41.337 L 381.672 53.293 L 381.672 53.293 Q 381.769 54.84 380.512 54.937 L 380.512 54.937 L 376.903 54.937 L 376.903 54.937 Q 376.645 54.904 376.677 54.518 L 376.677 54.518 L 376.709 42.594 L 376.709 42.594 Q 376.742 39.5 374.292 39.436 L 374.292 39.436 L 374.292 39.436 Q 372.456 39.5 371.457 40.886 L 371.457 40.886 L 371.424 53.1 L 371.424 53.1 Q 371.553 54.904 370.071 54.904 L 370.071 54.904 L 370.071 54.904 Q 366.655 54.904 366.397 54.904 L 366.397 54.904 L 366.397 54.904 Q 366.075 54.84 366.01 54.453 L 366.01 54.453 L 366.075 41.498 L 366.075 41.498 Q 366.075 39.758 363.883 38.533 L 363.883 38.533 L 363.883 38.533 Q 363.851 37.985 364.625 37.856 L 364.625 37.856 L 364.625 37.856 Q 368.363 37.019 370.715 36.6 L 370.715 36.6 L 370.715 36.6 Q 371.134 36.6 371.102 37.083 L 371.102 37.083 L 371.102 38.437 L 371.102 38.437 Q 372.81 36.438 375.968 36.438 Z  M 405.23 38.888 L 405.23 38.888 L 405.23 38.888 Q 404.07 38.888 403.184 40.08 L 403.184 40.08 L 403.184 40.08 Q 402.297 41.272 402.297 44.141 L 402.297 44.141 L 408.872 44.141 L 408.872 44.141 Q 408.968 41.627 407.905 40.241 L 407.905 40.241 L 407.905 40.241 Q 406.841 38.855 405.23 38.888 Z  M 405.262 36.406 L 405.262 36.406 Q 411.675 36.406 413.834 42.368 L 413.834 42.368 L 413.834 42.368 Q 414.447 44.302 414.221 46.493 L 414.221 46.493 L 414.221 46.493 Q 414.253 47.234 413.641 47.234 L 413.641 47.234 L 402.394 47.299 L 402.394 47.299 Q 402.168 47.234 402.233 47.557 L 402.233 47.557 L 402.233 47.557 Q 402.265 51.134 405.826 51.859 L 405.826 51.859 L 405.826 51.859 Q 409.387 52.584 412.513 50.328 L 412.513 50.328 L 412.513 50.328 Q 412.61 50.231 412.739 50.296 L 412.739 50.296 L 412.739 50.296 Q 413.125 50.586 413.641 51.198 L 413.641 51.198 L 413.641 51.198 Q 413.834 51.392 413.706 51.553 L 413.706 51.553 L 413.706 51.553 Q 410.29 55.42 405.294 55.13 L 405.294 55.13 L 405.294 55.13 Q 399.139 54.904 396.916 49.039 L 396.916 49.039 L 396.916 49.039 Q 396.625 47.686 396.625 46.59 L 396.625 46.59 L 396.625 45.301 L 396.625 45.301 Q 397.689 36.503 405.262 36.406 L 405.262 36.406 Z  M 429.045 36.277 L 429.045 36.277 L 429.045 36.277 Q 434.878 36.6 435.716 41.144 L 435.716 41.144 L 435.716 41.144 Q 435.845 42.465 435.845 43.206 L 435.845 43.206 L 435.877 51.553 L 435.877 51.553 Q 436.006 54.099 434.008 54.63 L 434.008 54.63 L 434.008 54.63 Q 432.01 55.162 430.721 54.969 L 430.721 54.969 L 430.721 54.969 Q 430.463 54.969 430.463 54.743 L 430.463 54.743 L 430.463 43.077 L 430.463 43.077 Q 430.463 39.371 427.66 39.371 L 427.66 39.371 L 427.66 39.371 Q 425.791 39.371 424.598 40.886 L 424.598 40.886 L 424.598 52.842 L 424.598 52.842 Q 424.695 54.969 423.116 55.001 L 423.116 55.001 L 423.116 55.001 Q 420.054 54.969 419.571 54.969 L 419.571 54.969 L 419.571 54.969 Q 419.281 54.937 419.216 54.614 L 419.216 54.614 L 419.216 41.659 L 419.216 41.659 Q 419.216 39.79 416.993 38.437 L 416.993 38.437 L 416.993 38.308 L 416.993 38.308 Q 417.025 37.921 417.605 37.792 L 417.605 37.792 L 417.605 37.792 Q 422.568 36.696 423.921 36.535 L 423.921 36.535 L 423.921 36.535 Q 424.244 36.535 424.34 36.857 L 424.34 36.857 L 424.34 36.857 Q 424.34 37.566 424.34 38.082 L 424.34 38.082 L 424.34 38.082 Q 426.242 36.277 429.045 36.277 Z  M 447.543 30.509 L 447.543 30.509 Q 447.995 30.541 448.027 30.96 L 448.027 30.96 L 448.027 36.632 L 453.312 36.632 L 453.312 36.632 Q 453.57 36.664 453.602 36.89 L 453.602 36.89 L 453.602 36.89 Q 453.409 37.953 452.684 38.582 L 452.684 38.582 L 452.684 38.582 Q 451.958 39.21 450.863 39.242 L 450.863 39.242 L 448.027 39.274 L 448.027 49.49 L 448.027 49.49 Q 448.027 52.101 450.25 52.101 L 450.25 52.101 L 450.25 52.101 Q 451.765 52.036 452.829 51.488 L 452.829 51.488 L 452.829 51.488 Q 453.119 51.327 453.28 51.553 L 453.28 51.553 L 453.28 51.553 Q 453.57 52.036 453.699 52.294 L 453.699 52.294 L 453.699 52.294 Q 453.473 53.357 451.975 54.147 L 451.975 54.147 L 451.975 54.147 Q 450.476 54.937 448.156 54.937 L 448.156 54.937 L 448.156 54.937 Q 443.708 54.937 442.935 52.294 L 442.935 52.294 L 442.935 52.294 Q 442.677 51.488 442.709 50.006 L 442.709 50.006 L 442.709 39.242 L 440.583 39.242 L 440.583 39.242 Q 440.099 39.242 440.099 38.727 L 440.099 38.727 L 440.099 36.986 L 440.099 36.986 Q 440.099 36.696 440.454 36.632 L 440.454 36.632 L 440.454 36.632 Q 442.709 36.632 442.709 36.632 L 442.709 36.632 L 442.742 34.602 L 442.742 34.602 Q 442.838 33.345 441.775 33.345 L 441.775 33.345 L 441.775 33.345 Q 441.743 32.507 442.419 32.281 L 442.419 32.281 L 447.543 30.509 Z "
                fill="rgb(214,171,116)" />
        </g>
        <g style="isolation:isolate">
            <g>
                <path
                    d=" M 133.573 56.562 L 128.783 56.509 L 128.73 28.143 Q 133.193 31.89 134.691 34.636 C 136.223 37.444 137.308 40.148 136.926 43.364 C 136.743 44.905 135.848 45.761 135.649 47.568 C 135.527 48.667 135.697 49.682 135.542 50.814 Q 135.251 52.943 133.573 56.562 L 133.573 56.562 L 133.573 56.562 L 133.573 56.562 L 133.573 56.562 Z  M 146.931 127.237 Q 144.02 124.35 142.727 122.5 Q 141.544 120.809 139.853 117.391 L 136.873 119.307 Q 137.819 123.1 138.735 125.002 C 139.421 126.425 140.127 127.571 141.077 128.833 Q 141.683 129.639 142.94 131.015 Q 144.297 130.034 144.962 129.419 Q 145.721 128.716 146.931 127.237 L 146.931 127.237 L 146.931 127.237 L 146.931 127.237 L 146.931 127.237 Z  M 164.777 90.906 Q 165.489 92.928 165.079 93.975 C 164.76 94.788 163.869 95.024 163.442 95.771 C 162.525 97.379 163.463 99.072 163.216 100.84 C 162.997 102.412 162.817 103.763 162.223 105.24 Q 161.703 106.532 160.249 108.663 Q 159.495 105.696 157.974 105.63 C 156.999 105.587 156.416 106.358 155.694 106.943 C 154.783 107.681 154.308 108.589 153.583 109.502 C 152.537 110.82 151.731 111.996 150.71 113.333 C 150.023 114.233 149.357 114.933 148.74 115.883 C 148.115 116.847 147.518 117.651 147.197 118.762 C 146.922 119.715 146.833 120.567 146.918 121.556 Q 147.016 122.711 147.889 124.682 Q 145.598 123.121 144.625 121.986 C 143.695 120.901 143.051 119.853 142.527 118.522 Q 142.196 117.682 141.849 116.047 Q 144.054 114.14 145.201 113.054 C 146.379 111.939 147.342 110.96 148.457 109.781 C 149.367 108.818 150.199 108.053 150.989 106.987 Q 152.522 104.917 154.133 100.414 Q 156.439 100.95 157.681 100.698 C 158.556 100.521 159.371 100.372 160.01 99.723 C 160.6 99.123 160.725 98.372 160.945 97.576 C 161.158 96.807 160.98 96.088 161.247 95.332 C 161.574 94.405 162.186 93.798 162.79 93.035 Q 163.426 92.231 164.777 90.906 L 164.777 90.906 L 164.777 90.906 L 164.777 90.906 Z  M 137.085 56.722 Q 137.017 55.401 137.298 54.753 C 137.503 54.282 137.946 54.052 138.15 53.582 C 138.549 52.662 137.926 51.778 138.097 50.814 C 138.334 49.472 139.057 48.514 139.746 47.355 Q 140.75 45.669 143.206 42.991 L 146.505 47.781 Q 144.191 49.747 143.099 50.974 C 142.265 51.911 141.571 52.723 140.917 53.795 Q 140.333 54.753 139.534 56.669 L 137.085 56.722 L 137.085 56.722 L 137.085 56.722 Z  M 142.354 56.669 Q 143.779 54.2 144.802 53.05 Q 145.882 51.837 148.315 50.069 Q 149.942 52.539 151.188 53.529 C 152.335 54.439 153.616 54.689 154.861 55.445 C 155.988 56.128 156.978 56.674 157.947 57.573 C 158.658 58.233 159.13 58.912 159.757 59.649 Q 160.23 60.205 161.087 61.245 L 158.16 61.299 Q 158.088 59.824 157.734 59.117 C 157.295 58.236 156.6 57.702 155.765 57.201 C 155.275 56.907 154.835 56.685 154.275 56.562 C 153.342 56.358 152.556 56.851 151.614 56.828 C 150.232 56.795 149.052 56.234 147.676 56.136 Q 145.749 55.999 142.354 56.669 L 142.354 56.669 Z  M 120.481 56.562 L 125.271 56.509 L 125.324 28.143 Q 120.862 31.89 119.364 34.636 C 117.832 37.444 116.747 40.148 117.128 43.364 C 117.311 44.905 118.206 45.761 118.406 47.568 C 118.527 48.667 118.357 49.682 118.512 50.814 Q 118.803 52.943 120.481 56.562 L 120.481 56.562 L 120.481 56.562 L 120.481 56.562 L 120.481 56.562 Z  M 107.123 127.237 Q 110.034 124.35 111.328 122.5 Q 112.51 120.809 114.201 117.391 L 117.182 119.307 Q 116.236 123.1 115.319 125.002 C 114.633 126.425 113.927 127.571 112.977 128.833 Q 112.371 129.639 111.115 131.015 Q 109.757 130.034 109.092 129.419 Q 108.334 128.716 107.123 127.237 L 107.123 127.237 L 107.123 127.237 L 107.123 127.237 L 107.123 127.237 Z  M 89.277 90.906 Q 88.566 92.928 88.976 93.975 C 89.294 94.788 90.186 95.024 90.612 95.771 C 91.53 97.379 90.592 99.072 90.838 100.84 C 91.057 102.412 91.238 103.763 91.832 105.24 Q 92.352 106.532 93.805 108.663 Q 94.559 105.696 96.08 105.63 C 97.055 105.587 97.639 106.358 98.36 106.943 C 99.272 107.681 99.746 108.589 100.471 109.502 C 101.517 110.82 102.324 111.996 103.345 113.333 C 104.032 114.233 104.697 114.933 105.314 115.883 C 105.939 116.847 106.537 117.651 106.857 118.762 C 107.132 119.715 107.221 120.567 107.137 121.556 Q 107.038 122.711 106.165 124.682 Q 108.457 123.121 109.429 121.986 C 110.36 120.901 111.004 119.853 111.527 118.522 Q 111.858 117.682 112.206 116.047 Q 110 114.14 108.853 113.054 C 107.675 111.939 106.712 110.96 105.598 109.781 C 104.688 108.818 103.855 108.053 103.065 106.987 Q 101.532 104.917 99.921 100.414 Q 97.615 100.95 96.373 100.698 C 95.498 100.521 94.684 100.372 94.045 99.723 C 93.455 99.123 93.329 98.372 93.109 97.576 C 92.896 96.807 93.074 96.088 92.807 95.332 C 92.48 94.405 91.868 93.798 91.264 93.035 Q 90.629 92.231 89.277 90.906 L 89.277 90.906 L 89.277 90.906 L 89.277 90.906 Z  M 116.969 56.722 Q 117.037 55.401 116.756 54.753 C 116.552 54.282 116.109 54.052 115.904 53.582 C 115.505 52.662 116.128 51.778 115.958 50.814 C 115.721 49.472 114.997 48.514 114.308 47.355 Q 113.304 45.669 110.849 42.991 L 107.549 47.781 Q 109.863 49.747 110.955 50.974 C 111.789 51.911 112.483 52.723 113.137 53.795 Q 113.722 54.753 114.521 56.669 L 116.969 56.722 L 116.969 56.722 L 116.969 56.722 Z  M 111.7 56.669 Q 110.276 54.2 109.252 53.05 Q 108.172 51.837 105.74 50.069 Q 104.112 52.539 102.866 53.529 C 101.719 54.439 100.439 54.689 99.194 55.445 C 98.067 56.128 97.076 56.674 96.107 57.573 C 95.396 58.233 94.924 58.912 94.298 59.649 Q 93.825 60.205 92.967 61.245 L 95.894 61.299 Q 95.967 59.824 96.32 59.117 C 96.759 58.236 97.454 57.702 98.289 57.201 C 98.779 56.907 99.219 56.685 99.779 56.562 C 100.712 56.358 101.498 56.851 102.44 56.828 C 103.822 56.795 105.002 56.234 106.378 56.136 Q 108.305 55.999 111.7 56.669 L 111.7 56.669 Z "
                    fill-rule="evenodd" fill="rgb(238,205,138)" fill-opacity="0.5" />
                <path
                    d=" M 126.9 159 L 91.349 123.25 L 55.799 87.5 L 91.349 51.75 L 126.9 16 L 162.45 51.75 L 198 87.5 L 162.45 123.25 L 126.9 159 Z  M 126.601 156.046 L 92.52 121.773 L 58.439 87.5 L 92.52 53.227 L 126.601 18.954 L 160.683 53.227 L 194.764 87.5 L 160.683 121.773 L 126.601 156.046 Z "
                    fill-rule="evenodd" fill="rgb(238,205,138)" />
                <linearGradient id="_lgradient_1" x1="0.4999999999999999" y1="1" x2="0.49999999999999994" y2="0"
                    gradientTransform="matrix(132.242,0,0,124.319,60.61,22.928)" gradientUnits="userSpaceOnUse">
                    <stop offset="0%" stop-opacity="1" style="stop-color:rgb(202,177,133)" />
                    <stop offset="21.25%" stop-opacity="1" style="stop-color:rgb(214,171,116)" />
                    <stop offset="57.91666666666667%" stop-opacity="1" style="stop-color:rgb(253,219,133)" />
                    <stop offset="100%" stop-opacity="1" style="stop-color:rgb(253,251,186)" />
                </linearGradient>
                <path
                    d=" M 99.655 94.585 C 101.603 102.71 106.321 108.489 117.701 116.134 C 120.073 117.728 122.617 121.527 123.408 125.075 C 124.073 128.057 124.277 130.825 122.658 133.59 Q 121.694 135.237 118.83 137.49 L 118.83 137.49 C 118.486 137.514 118.16 137.562 117.855 137.632 C 117.755 137.654 117.663 137.681 117.57 137.707 C 117.524 137.722 117.478 137.733 117.439 137.748 C 117.112 137.855 116.826 137.99 116.596 138.146 L 116.588 138.146 C 115.453 138.146 114.531 138.637 114.531 139.241 L 114.531 139.241 C 114.531 139.846 115.453 140.336 116.588 140.336 L 136.189 140.336 C 137.324 140.336 138.246 139.846 138.246 139.241 L 138.246 139.241 C 138.246 138.637 137.324 138.146 136.189 138.146 L 136.181 138.146 C 136.076 138.075 135.959 138.008 135.831 137.946 C 135.44 137.755 134.96 137.617 134.438 137.542 Q 131.52 135.256 130.544 133.59 C 128.925 130.825 129.13 128.057 129.795 125.075 C 130.585 121.527 133.13 117.728 135.501 116.134 C 146.881 108.489 151.6 102.71 153.548 94.585 L 153.548 94.585 C 154.361 95.104 154.892 96.307 155.672 96.918 C 155.909 97.104 156.093 97.287 156.364 97.421 C 156.889 97.68 157.414 97.764 157.987 97.634 C 159.046 97.394 159.828 96.49 159.828 95.427 C 159.828 95.354 159.825 95.282 159.82 95.211 C 159.791 94.628 159.865 94.003 160.045 93.373 C 160.313 92.431 160.776 91.62 161.346 91.032 L 161.346 91.032 L 161.346 91.032 L 161.346 91.032 C 163.279 89.436 165.05 87.373 166.486 84.93 C 171.308 76.725 170.546 67.316 164.785 63.93 C 161.831 62.194 158.133 62.377 154.581 64.082 C 154.265 63.632 153.742 63.341 153.151 63.341 L 144.502 63.341 L 128.151 63.341 L 128.151 63.341 L 126.814 63.341 L 126.814 63.341 L 125.052 63.341 L 125.052 63.341 L 108.701 63.341 L 100.052 63.341 C 99.461 63.341 98.937 63.632 98.621 64.082 C 95.069 62.377 91.371 62.194 88.417 63.93 C 82.657 67.316 81.895 76.725 86.717 84.93 C 88.153 87.373 89.924 89.436 91.856 91.032 L 91.856 91.032 L 91.856 91.032 L 91.856 91.032 C 92.427 91.62 92.889 92.431 93.158 93.373 C 93.337 94.003 93.412 94.628 93.383 95.211 C 93.378 95.282 93.375 95.354 93.375 95.427 C 93.375 96.49 94.157 97.394 95.216 97.634 C 95.788 97.764 96.314 97.68 96.839 97.421 C 97.109 97.287 97.294 97.104 97.531 96.918 C 98.311 96.307 98.842 95.104 99.655 94.585 Z  M 98.998 91.142 C 98.427 87.143 98.31 82.552 98.291 76.976 C 98.289 76.953 98.289 76.929 98.289 76.906 L 98.289 74.896 L 98.289 70.165 C 95.67 68.066 92.578 67.41 90.268 68.767 C 86.911 70.74 86.467 76.224 89.277 81.006 C 90.24 82.644 91.434 84.66 92.967 86.365 C 94.364 87.917 97.159 89.907 98.998 91.142 L 98.998 91.142 Z  M 154.204 91.142 C 154.776 87.143 154.893 82.552 154.911 76.976 C 154.913 76.953 154.914 76.929 154.914 76.906 L 154.914 74.896 L 154.914 70.165 C 157.533 68.066 160.624 67.41 162.934 68.767 C 166.291 70.74 166.735 76.224 163.925 81.006 C 162.963 82.644 161.769 84.66 160.236 86.365 C 158.839 87.917 156.044 89.907 154.204 91.142 L 154.204 91.142 L 154.204 91.142 Z  M 127.125 72.624 L 129.398 79.417 C 129.727 80.4 130.795 81.456 131.781 81.775 L 138.597 83.977 C 139.583 84.295 139.586 84.821 138.604 85.15 L 131.811 87.423 C 130.828 87.752 129.772 88.82 129.453 89.806 L 127.251 96.622 C 126.933 97.609 126.407 97.611 126.078 96.629 L 123.804 89.836 C 123.475 88.853 122.408 87.797 121.422 87.478 L 114.605 85.276 C 113.619 84.958 113.617 84.432 114.599 84.103 L 121.392 81.83 C 122.374 81.501 123.431 80.433 123.75 79.447 L 125.951 72.631 C 126.27 71.644 126.796 71.642 127.125 72.624 L 127.125 72.624 L 127.125 72.624 Z  M 111.703 142.71 C 112.054 142.387 112.489 142.107 112.986 141.885 C 113.045 141.854 113.115 141.831 113.185 141.8 C 113.326 141.746 113.467 141.691 113.619 141.645 C 114.287 141.436 115.026 141.32 115.811 141.32 L 137.403 141.32 C 138.741 141.318 140.024 141.669 140.967 142.296 C 141.161 142.424 141.34 142.562 141.5 142.71 L 141.512 142.71 C 143.239 142.71 144.641 143.726 144.641 144.978 L 144.641 144.978 C 144.641 146.231 143.239 147.247 141.512 147.247 L 111.691 147.247 C 109.964 147.247 108.562 146.231 108.562 144.978 L 108.562 144.978 C 108.562 143.726 109.964 142.71 111.691 142.71 L 111.703 142.71 Z  M 100.684 58.691 L 152.519 58.691 C 154.252 58.691 155.659 59.518 155.659 60.536 L 155.659 60.536 C 155.659 61.554 154.252 62.381 152.519 62.381 L 100.684 62.381 C 98.951 62.381 97.544 61.554 97.544 60.536 L 97.544 60.536 C 97.544 59.518 98.951 58.691 100.684 58.691 Z  M 168.751 126.385 Q 178.161 124.977 182.375 122.128 Q 186.859 119.096 191.741 110.207 Q 182.286 111.556 178.969 115.316 C 177.585 116.884 177.274 118.784 175.988 120.425 Q 173.941 123.039 168.751 126.385 Z  M 184.078 107.226 Q 189.602 101.992 191.316 98.286 Q 194.158 92.139 191.741 79.553 Q 186.974 84.863 185.781 88.493 C 184.55 92.24 185.794 95.692 185.355 99.563 Q 185.047 102.277 184.078 107.226 Z  M 146.186 22.928 Q 155.418 35.822 158.533 43.79 Q 160.624 49.14 162.79 59.542 Q 151.179 52.06 147.889 45.493 Q 144.237 38.201 146.186 22.928 Z  M 183.652 86.79 Q 185.915 80.56 186.207 76.998 C 186.49 73.54 186.11 70.586 185.355 67.206 Q 184.282 62.404 179.82 54.433 Q 176.798 60.572 176.84 64.226 C 176.892 68.691 180.3 71.526 181.523 75.721 Q 182.633 79.529 183.652 86.79 Z  M 160.236 133.197 Q 157.037 135.02 150.869 137.881 Q 160.718 139.573 165.77 137.881 Q 169.91 136.494 175.988 131.069 Q 169.337 128.715 165.77 129.791 C 163.56 130.458 162.22 132.067 160.236 133.197 Z  M 141.928 134.475 Q 147.796 134.807 150.869 134.049 C 154.414 133.174 157.025 131.381 160.076 129.419 Q 163.476 127.232 168.751 122.128 Q 173.212 117.114 175.137 114.038 C 177.103 110.897 178.599 108.098 179.697 104.552 C 180.716 101.263 181.063 98.344 181.284 94.913 C 181.467 92.054 181.515 89.613 181.134 86.77 C 180.68 83.382 179.694 80.635 178.543 77.424 C 177.209 73.702 174.988 71.004 173.86 67.206 C 173.508 66.023 173.019 65.045 173.008 63.8 C 172.994 62.214 174.101 61.101 174.285 59.542 C 174.498 57.741 174.323 56.184 173.86 54.433 C 172.824 50.515 169.407 48.66 167.048 45.493 Q 165.385 43.261 162.364 39.106 Q 162.288 46.036 162.79 49.75 C 163.18 52.631 163.443 55.118 164.493 57.839 C 165.56 60.604 167.352 62.479 168.751 65.077 C 169.861 67.139 170.972 68.815 171.731 71.038 C 172.472 73.209 172.869 75.133 173.008 77.424 C 173.097 78.877 172.472 80.146 172.902 81.562 C 173.558 83.725 176.273 83.966 177.266 85.939 Q 178.389 88.17 178.011 92.857 Q 175.529 89.825 173.92 88.447 C 172.776 87.468 172.077 85.852 170.454 85.939 Q 168.611 86.037 167.234 89.425 Q 166.96 93.009 167.713 94.773 C 168.334 96.229 169.404 97.123 170.454 98.286 C 172.05 100.054 174.942 100.314 175.506 102.786 C 175.839 104.244 175.422 105.521 174.924 106.907 Q 174.38 108.423 172.476 110.739 Q 170.743 108.646 170.454 107.226 C 170.274 106.341 170.595 105.562 170.454 104.672 C 170.22 103.2 169.621 102.042 168.751 100.84 Q 167.906 99.672 165.747 98.086 Q 166.077 100.997 165.77 102.543 C 165.521 103.803 164.953 104.757 164.493 105.949 C 163.913 107.452 163.141 108.627 162.79 110.207 C 162.395 111.985 162.124 113.424 162.604 115.359 C 162.957 116.779 163.269 118.407 162.79 119.999 Q 162.217 121.906 159.278 124.257 Q 158.854 122.927 158.746 122.181 C 158.384 119.685 160.641 117.81 160.236 115.316 Q 159.909 113.304 157.681 110.207 Q 154.397 112.424 152.998 114.038 C 151.37 115.918 149.939 117.668 149.539 120.159 C 149.221 122.138 150.652 123.776 150.231 125.747 Q 149.74 128.041 146.558 131.122 L 141.928 134.475 Z  M 84.711 126.385 Q 75.301 124.977 71.087 122.128 Q 66.602 119.096 61.72 110.207 Q 71.176 111.556 74.493 115.316 C 75.877 116.884 76.188 118.784 77.473 120.425 Q 79.521 123.039 84.711 126.385 Z  M 69.384 107.226 Q 63.86 101.992 62.146 98.286 Q 59.304 92.139 61.72 79.553 Q 66.488 84.863 67.681 88.493 C 68.912 92.24 67.668 95.692 68.107 99.563 Q 68.414 102.277 69.384 107.226 Z  M 107.276 22.928 Q 98.043 35.822 94.929 43.79 Q 92.838 49.14 90.671 59.542 Q 102.283 52.06 105.573 45.493 Q 109.225 38.201 107.276 22.928 Z  M 69.81 86.79 Q 67.547 80.56 67.255 76.998 C 66.972 73.54 67.351 70.586 68.107 67.206 Q 69.18 62.404 73.641 54.433 Q 76.664 60.572 76.622 64.226 C 76.57 68.691 73.161 71.526 71.938 75.721 Q 70.828 79.529 69.81 86.79 Z  M 93.226 133.197 Q 96.424 135.02 102.592 137.881 Q 92.743 139.573 87.691 137.881 Q 83.551 136.494 77.473 131.069 Q 84.125 128.715 87.691 129.791 C 89.902 130.458 91.242 132.067 93.226 133.197 Z  M 111.533 134.475 Q 105.665 134.807 102.592 134.049 C 99.047 133.174 96.437 131.381 93.386 129.419 Q 89.985 127.232 84.711 122.128 Q 80.25 117.114 78.325 114.038 C 76.358 110.897 74.862 108.098 73.764 104.552 C 72.746 101.263 72.398 98.344 72.178 94.913 C 71.994 92.054 71.946 89.613 72.328 86.77 C 72.782 83.382 73.768 80.635 74.919 77.424 C 76.253 73.702 78.473 71.004 79.602 67.206 C 79.953 66.023 80.442 65.045 80.453 63.8 C 80.468 62.214 79.36 61.101 79.176 59.542 C 78.963 57.741 79.139 56.184 79.602 54.433 C 80.638 50.515 84.054 48.66 86.414 45.493 Q 88.076 43.261 91.097 39.106 Q 91.173 46.036 90.671 49.75 C 90.282 52.631 90.019 55.118 88.968 57.839 C 87.901 60.604 86.11 62.479 84.711 65.077 C 83.601 67.139 82.489 68.815 81.731 71.038 C 80.989 73.209 80.593 75.133 80.453 77.424 C 80.365 78.877 80.989 80.146 80.56 81.562 C 79.904 83.725 77.189 83.966 76.196 85.939 Q 75.073 88.17 75.451 92.857 Q 77.933 89.825 79.542 88.447 C 80.685 87.468 81.385 85.852 83.008 85.939 Q 84.85 86.037 86.228 89.425 Q 86.502 93.009 85.749 94.773 C 85.127 96.229 84.058 97.123 83.008 98.286 C 81.412 100.054 78.52 100.314 77.955 102.786 C 77.623 104.244 78.04 105.521 78.538 106.907 Q 79.082 108.423 80.986 110.739 Q 82.719 108.646 83.008 107.226 C 83.188 106.341 82.866 105.562 83.008 104.672 C 83.242 103.2 83.841 102.042 84.711 100.84 Q 85.556 99.672 87.714 98.086 Q 87.385 100.997 87.691 102.543 C 87.94 103.803 88.508 104.757 88.968 105.949 C 89.549 107.452 90.321 108.627 90.671 110.207 C 91.066 111.985 91.338 113.424 90.858 115.359 C 90.505 116.779 90.193 118.407 90.671 119.999 Q 91.245 121.906 94.184 124.257 Q 94.608 122.927 94.716 122.181 C 95.078 119.685 92.82 117.81 93.226 115.316 Q 93.553 113.304 95.78 110.207 Q 99.065 112.424 100.464 114.038 C 102.092 115.918 103.523 117.668 103.923 120.159 C 104.241 122.138 102.809 123.776 103.231 125.747 Q 103.722 128.041 106.903 131.122 L 111.533 134.475 Z "
                    fill-rule="evenodd" fill="url(#_lgradient_1)" />
                <path
                    d=" M 98.977 91.128 L 99.606 94.618 C 98.957 95.059 98.486 95.932 97.911 96.56 L 96.636 89.487 C 97.467 90.097 98.288 90.665 98.977 91.128 Z "
                    fill="rgb(70,70,70)" fill-opacity="0.1" />
                <path
                    d=" M 154.226 91.136 L 153.597 94.626 C 154.247 95.068 154.718 95.941 155.293 96.569 L 156.567 89.496 C 155.737 90.106 154.916 90.673 154.226 91.136 Z "
                    fill="rgb(70,70,70)" fill-opacity="0.1" />
                <path
                    d=" M 98.289 63.927 L 98.289 70.165 C 97.309 69.38 96.262 68.796 95.216 68.445 L 95.216 62.93 C 96.236 63.129 97.267 63.465 98.289 63.927 Z "
                    fill="rgb(70,70,70)" fill-opacity="0.1" />
                <path
                    d=" M 154.827 63.927 L 154.827 70.165 C 155.808 69.38 156.854 68.796 157.901 68.445 L 157.901 62.93 C 156.881 63.129 155.849 63.465 154.827 63.927 Z "
                    fill="rgb(70,70,70)" fill-opacity="0.1" />
            </g>
        </g>
    </g>
</svg>